<svg xmlns="http://www.w3.org/2000/svg" viewBox="0 0 950 614.5"><style>.st0{fill:#ca181a}.st2{fill:#e30613}.st7{fill:#ff7963}.st8{fill:#891b15}.st9{fill:#1d1d1b}.st25{font-family:&apos;MicrosoftSansSerif&apos;}.st28{fill:#fecd57;stroke:#2b7771;stroke-width:11;stroke-miterlimit:10}.st29{fill:#505638}.st30{fill:#2e2d21}.st31{fill:#d2948b}</style><g id="Layer_7"><circle class="st0" cx="161.5" cy="126.1" r="37.1"/><linearGradient id="SVGID_1_" gradientUnits="userSpaceOnUse" x1="161.5" y1="368.8" x2="161.5" y2="443" gradientTransform="matrix(1 0 0 -1 0 532)"><stop offset="0" stop-color="#940000" stop-opacity=".7"/><stop offset=".581" stop-opacity="0"/></linearGradient><circle cx="161.5" cy="126.1" r="37.1" fill="url(#SVGID_1_)"/><circle class="st2" cx="161.5" cy="126.1" r="35.1"/><linearGradient id="SVGID_2_" gradientUnits="userSpaceOnUse" x1="161.5" y1="441" x2="161.5" y2="370.8" gradientTransform="matrix(1 0 0 -1 0 532)"><stop offset="0" stop-color="#fff" stop-opacity=".2"/><stop offset=".721" stop-color="#e90000" stop-opacity=".7"/></linearGradient><circle cx="161.5" cy="126.1" r="35.1" fill="url(#SVGID_2_)"/><radialGradient id="SVGID_3_" cx="161.5" cy="405.9" r="27.7" gradientTransform="matrix(1 0 0 -1 0 532)" gradientUnits="userSpaceOnUse"><stop offset=".453" stop-color="#de4e55"/><stop offset=".91" stop-color="#3d3d3d" stop-opacity=".4"/></radialGradient><circle cx="161.5" cy="126.1" r="27.7" fill="url(#SVGID_3_)"/><linearGradient id="SVGID_4_" gradientUnits="userSpaceOnUse" x1="161.496" y1="405.56" x2="161.883" y2="438.887" gradientTransform="matrix(1 0 0 -1 0 532)"><stop offset="0" stop-color="#e30613"/><stop offset=".91" stop-color="#fff" stop-opacity=".4"/></linearGradient><circle cx="161.5" cy="126.1" r="27.7" fill="url(#SVGID_4_)"/><circle class="st2" cx="161.5" cy="127.7" r="26.1"/><radialGradient id="SVGID_5_" cx="161.147" cy="404.528" r="36.217" gradientTransform="matrix(1 0 0 -1 0 532)" gradientUnits="userSpaceOnUse"><stop offset=".453" stop-color="#cc7a7a" stop-opacity=".3"/><stop offset=".91" stop-color="#3d3d3d" stop-opacity=".4"/></radialGradient><circle cx="161.5" cy="127.7" r="26.1" fill="url(#SVGID_5_)"/><path class="st7" d="M168.4 115.8v19.4l-18.4-9.7z"/><path class="st8" d="M168.4 117v19.4l-18.4-9.8z"/></g><g id="Layer_9"><path class="st9" d="M584.2 137.3H472.8v-31.5c0-12.9 10.5-23.4 23.4-23.4h64.6c12.9 0 23.4 10.5 23.4 23.4v31.5zm-55.7-40.7l-15.7 22.6h31.4l-15.7-22.6zM556.9 194.2h-56.8c-15.1 0-27.3-12.2-27.3-27.3v-27.6h111.4v27.6c0 15.1-12.3 27.3-27.3 27.3zm-12.7-38.8h-31.4l15.7 22.7 15.7-22.7zM440.4 194.2h-59.3c-14.4 0-26.1-11.7-26.1-26.1v-2.8c0-14.4 11.7-26.1 26.1-26.1h59.3c14.4 0 26.1 11.7 26.1 26.1v2.8c-.1 14.4-11.8 26.1-26.1 26.1zm-42.5-27.4l25.6 13.9v-27.9l-25.6 14zM675.9 194.2h-59.3c-14.4 0-26.1-11.7-26.1-26.1v-2.8c0-14.4 11.7-26.1 26.1-26.1h59.3c14.4 0 26.1 11.7 26.1 26.1v2.8c-.1 14.4-11.7 26.1-26.1 26.1zm-40-41.4v27.8l25.6-13.9-25.6-13.9z"/></g><g id="Layer_8"><circle class="st0" cx="226.1" cy="67.7" r="37.1"/><linearGradient id="SVGID_6_" gradientUnits="userSpaceOnUse" x1="226.1" y1="427.2" x2="226.1" y2="501.4" gradientTransform="matrix(1 0 0 -1 0 532)"><stop offset="0" stop-color="#940000" stop-opacity=".7"/><stop offset=".581" stop-opacity="0"/></linearGradient><circle cx="226.1" cy="67.7" r="37.1" fill="url(#SVGID_6_)"/><circle class="st2" cx="226.1" cy="67.7" r="35.1"/><linearGradient id="SVGID_7_" gradientUnits="userSpaceOnUse" x1="226.1" y1="499.4" x2="226.1" y2="429.2" gradientTransform="matrix(1 0 0 -1 0 532)"><stop offset="0" stop-color="#fff" stop-opacity=".2"/><stop offset=".721" stop-color="#e90000" stop-opacity=".7"/></linearGradient><circle cx="226.1" cy="67.7" r="35.1" fill="url(#SVGID_7_)"/><radialGradient id="SVGID_8_" cx="226.1" cy="464.3" r="27.7" gradientTransform="matrix(1 0 0 -1 0 532)" gradientUnits="userSpaceOnUse"><stop offset=".453" stop-color="#de4e55"/><stop offset=".91" stop-color="#3d3d3d" stop-opacity=".4"/></radialGradient><circle cx="226.1" cy="67.7" r="27.7" fill="url(#SVGID_8_)"/><linearGradient id="SVGID_9_" gradientUnits="userSpaceOnUse" x1="226.096" y1="463.972" x2="226.483" y2="497.299" gradientTransform="matrix(1 0 0 -1 0 532)"><stop offset="0" stop-color="#e30613"/><stop offset=".91" stop-color="#fff" stop-opacity=".4"/></linearGradient><circle cx="226.1" cy="67.7" r="27.7" fill="url(#SVGID_9_)"/><circle class="st2" cx="226.1" cy="69.3" r="26.1"/><radialGradient id="SVGID_10_" cx="225.766" cy="462.939" r="36.217" gradientTransform="matrix(1 0 0 -1 0 532)" gradientUnits="userSpaceOnUse"><stop offset=".453" stop-color="#cc7a7a" stop-opacity=".3"/><stop offset=".91" stop-color="#3d3d3d" stop-opacity=".4"/></radialGradient><circle cx="226.1" cy="69.3" r="26.1" fill="url(#SVGID_10_)"/><path class="st7" d="M235.8 73.4h-19.4l9.7-18.5z"/><path class="st8" d="M235.8 75.1h-19.4l9.7-18.4z"/></g><g id="Layer_6_1_"><circle class="st0" cx="292.3" cy="126.1" r="37.1"/><linearGradient id="SVGID_11_" gradientUnits="userSpaceOnUse" x1="292.3" y1="368.8" x2="292.3" y2="443" gradientTransform="matrix(1 0 0 -1 0 532)"><stop offset="0" stop-color="#940000" stop-opacity=".7"/><stop offset=".581" stop-opacity="0"/></linearGradient><circle cx="292.3" cy="126.1" r="37.1" fill="url(#SVGID_11_)"/><circle class="st2" cx="292.3" cy="126.1" r="35.1"/><linearGradient id="SVGID_12_" gradientUnits="userSpaceOnUse" x1="292.3" y1="441" x2="292.3" y2="370.8" gradientTransform="matrix(1 0 0 -1 0 532)"><stop offset="0" stop-color="#fff" stop-opacity=".2"/><stop offset=".721" stop-color="#e90000" stop-opacity=".7"/></linearGradient><circle cx="292.3" cy="126.1" r="35.1" fill="url(#SVGID_12_)"/><radialGradient id="SVGID_13_" cx="292.3" cy="405.9" r="27.7" gradientTransform="matrix(1 0 0 -1 0 532)" gradientUnits="userSpaceOnUse"><stop offset=".453" stop-color="#de4e55"/><stop offset=".91" stop-color="#3d3d3d" stop-opacity=".4"/></radialGradient><circle cx="292.3" cy="126.1" r="27.7" fill="url(#SVGID_13_)"/><linearGradient id="SVGID_14_" gradientUnits="userSpaceOnUse" x1="292.296" y1="405.56" x2="292.683" y2="438.887" gradientTransform="matrix(1 0 0 -1 0 532)"><stop offset="0" stop-color="#e30613"/><stop offset=".91" stop-color="#fff" stop-opacity=".4"/></linearGradient><circle cx="292.3" cy="126.1" r="27.7" fill="url(#SVGID_14_)"/><circle class="st2" cx="292.3" cy="127.7" r="26.1"/><radialGradient id="SVGID_15_" cx="291.986" cy="404.528" r="36.217" gradientTransform="matrix(1 0 0 -1 0 532)" gradientUnits="userSpaceOnUse"><stop offset=".453" stop-color="#cc7a7a" stop-opacity=".3"/><stop offset=".91" stop-color="#3d3d3d" stop-opacity=".4"/></radialGradient><circle cx="292.3" cy="127.7" r="26.1" fill="url(#SVGID_15_)"/><path class="st7" d="M304.7 125.3l-18.4 9.8v-19.4z"/><path class="st8" d="M304.7 126.5l-18.4 9.7v-19.4z"/></g><g id="Layer_5"><circle class="st0" cx="226.1" cy="186.3" r="37.1"/><linearGradient id="SVGID_16_" gradientUnits="userSpaceOnUse" x1="226.1" y1="308.6" x2="226.1" y2="382.8" gradientTransform="matrix(1 0 0 -1 0 532)"><stop offset="0" stop-color="#940000" stop-opacity=".7"/><stop offset=".581" stop-opacity="0"/></linearGradient><circle cx="226.1" cy="186.3" r="37.1" fill="url(#SVGID_16_)"/><circle class="st2" cx="226.1" cy="186.3" r="35.1"/><linearGradient id="SVGID_17_" gradientUnits="userSpaceOnUse" x1="226.1" y1="380.8" x2="226.1" y2="310.6" gradientTransform="matrix(1 0 0 -1 0 532)"><stop offset="0" stop-color="#fff" stop-opacity=".2"/><stop offset=".721" stop-color="#e90000" stop-opacity=".7"/></linearGradient><circle cx="226.1" cy="186.3" r="35.1" fill="url(#SVGID_17_)"/><radialGradient id="SVGID_18_" cx="226.1" cy="345.7" r="27.67" gradientTransform="matrix(1 0 0 -1 0 532)" gradientUnits="userSpaceOnUse"><stop offset=".453" stop-color="#de4e55"/><stop offset=".91" stop-color="#3d3d3d" stop-opacity=".4"/></radialGradient><circle cx="226.1" cy="186.3" r="27.7" fill="url(#SVGID_18_)"/><linearGradient id="SVGID_19_" gradientUnits="userSpaceOnUse" x1="226.096" y1="345.367" x2="226.483" y2="378.694" gradientTransform="matrix(1 0 0 -1 0 532)"><stop offset="0" stop-color="#e30613"/><stop offset=".91" stop-color="#fff" stop-opacity=".4"/></linearGradient><circle cx="226.1" cy="186.3" r="27.7" fill="url(#SVGID_19_)"/><circle class="st2" cx="226.1" cy="187.9" r="26.1"/><radialGradient id="SVGID_20_" cx="225.733" cy="344.335" r="36.217" gradientTransform="matrix(1 0 0 -1 0 532)" gradientUnits="userSpaceOnUse"><stop offset=".453" stop-color="#cc7a7a" stop-opacity=".3"/><stop offset=".91" stop-color="#3d3d3d" stop-opacity=".4"/></radialGradient><circle cx="226.1" cy="187.9" r="26.1" fill="url(#SVGID_20_)"/><path class="st7" d="M226.1 195.6l-9.7-18.4h19.4z"/><path class="st8" d="M226.1 196.8l-9.7-18.4h19.4z"/></g><g id="Layer_4"><text transform="translate(155.7 284.59)" class="st25" font-size="45.141">Use touchscreen or keyboard.</text><text transform="translate(38.223 553.127)" class="st25" font-size="33.566">You can pass through edges. But can’t pass through snake.</text></g><g id="Layer_2"><path class="st28" d="M528.6 316h220.1v182.2H528.6z"/><path class="st29" d="M557.3 351.1l20.1-6.4c.1 0 .2-.1.4-.1l58.1-2.3H703.3c2.7 0 4.9 2.2 4.9 4.9v83c0 2.8-2.3 5.1-5.1 5.1h-96c-3.7 0-6.6-3.1-6.3-6.7l1.7-27.9c0-.2 0-.3.1-.5l6.2-17.6s0-.1.1-.1l5.5-12.5c1.3-1.6 2.9-2 1.8-2.9l-42.9-1.7c-.2 0-.4-.1-.6-.2l-17-8.1c-.8-.4-1.2-1.4-.8-2.2l1.4-3.1c.2-.2.6-.5 1-.7zm116.4 15.5l-49.7 1c-.9.9.8 1.1 1.3 2.2l6.8 13.7c.1.2.1.3.2.5l2.9 20.3c.1.8.8 1.4 1.7 1.4h38.4c.9 0 1.7-.8 1.7-1.7l-1.4-35.8c-.2-.9-1-1.6-1.9-1.6z"/><path class="st30" d="M630.2 392.2L626 387c-.1-.1-.1-.1-.1-.2l-2.8-7.2c-.3-.8.5-1.5 1.2-1l5.4 4.2c.2.1.3.3.3.5l1.6 8.2c.1.8-.9 1.4-1.4.7zM610.4 392.2l4.2-5.2c.1-.1.1-.1.1-.2l2.8-7.2c.3-.8-.5-1.5-1.2-1l-5.4 4.2c-.2.1-.3.3-.3.5l-1.6 8.2c-.1.8.9 1.4 1.4.7z"/><path class="st31" d="M623.4 363.2l-.5 1.9.1 1.8 1.5 2c0 .5-1 .9-2.1.9h-3.7c-1.2 0-2.1-.4-2.1-.9l1.1-2.1.3-1.9-.4-1.7c.5-.5.7-.4 1.1-.9l1.2 1.4 1.8-.4.6-1c.9.5 1.2.5 1.1.9z"/><path fill="#ff3737" d="M675 489.5h-21.9l1.2-8.7-17.5-12-4 .3-16.6 10.9 3.9 3-1.8 6.5h-22.2l2.2-11.4 8.2-1.5 16.7-11.6 2.5-2.7-10-9.3-11.5-6.5-5.6.7-2.5-10h25.5l-1.2 5.6-2.7 1.5 15.1 12 3.9 1 16-12.5-5.2-1.2 1.8-6.4H675l-1.2 8.7-8.2.2-21.6 15.8 1.4 3 15.6 11.9 5.4-3.3 8.6 3.5z"/></g><g id="Layer_3"><path class="st28" d="M150 316h220.1v182.2H150z"/><path class="st31" d="M251.6 404.5l-4.7-.5-4.5.1-5 1.5c-1.2 0-2.1-1-2.1-2.1v-3.7c0-1.2 1-2.1 2.1-2.1l5.2 1.1 4.7.3 4.1-.4c1.3.5 1 .7 2.1 1.1L250 401l1 1.8 2.5.7c-1.1.7-1.1 1-1.9 1z"/><path class="st29" d="M242.8 396.7c-7.3-4.8-29-13.2-42.1-14.2h-44.9l-.1.1V420l45 .2c5.8 0 43.3-10 43.3-15.8V400c.3-1.2-.1-2.6-1.2-3.3zM306 395c12.4-3.1 21.6-5.9 34.8-6.9l23.7-5.4.1.1v37.5l-24.8-3.3c-3.3 0-14.7-1.7-25.8-5.6-8.4-2.9-19.3-5.6-22.4-8.3l1.5-4c2.7-2.6 11.6-3.8 12.9-4.1z"/><path class="st30" d="M222.7 409.4l-14 4.3c-.8.3-1.4-.9-.7-1.4l7.7-5.4c.1 0 .1-.1.2-.1l9.3-2.7c.7-.2 1.3.6.8 1.2l-3 3.8c0 .1-.2.2-.3.3zM222.7 392.4l-14-4.3c-.8-.3-1.4.9-.7 1.4l7.7 5.4c.1 0 .1.1.2.1l9.3 2.7c.7.2 1.3-.6.8-1.2l-3-3.8c0-.2-.2-.3-.3-.3z"/><path fill="#1bd200" d="M283.5 475.3l-7.5 12.4h-13.1l-7-9.6-11.5-20.1-9.1-1.4-2.4-7.7 26.7.2 4.6 6.1-3.9 2 8.2 14.4 4-.1 14.2-30.6-4.9-3.2 5.2-6.3h25.8l-2.1 5.9-9.1 3.8z"/></g></svg>